<?xml version="1.0" encoding="UTF-8" standalone="no"?>
<svg
   viewBox="0 0 400 400"
   width="400"
   height="400"
   version="1.1"
   id="svg10"
   sodipodi:docname="favicon.svg"
   inkscape:version="1.4.2 (ebf0e940d0, 2025-05-08)"
   xmlns:inkscape="http://www.inkscape.org/namespaces/inkscape"
   xmlns:sodipodi="http://sodipodi.sourceforge.net/DTD/sodipodi-0.dtd"
   xmlns="http://www.w3.org/2000/svg"
   xmlns:svg="http://www.w3.org/2000/svg">
  <sodipodi:namedview
     id="namedview10"
     pagecolor="#505050"
     bordercolor="#eeeeee"
     borderopacity="1"
     inkscape:showpageshadow="0"
     inkscape:pageopacity="0"
     inkscape:pagecheckerboard="0"
     inkscape:deskcolor="#505050"
     inkscape:zoom="1.4328165"
     inkscape:cx="187.04418"
     inkscape:cy="273.93598"
     inkscape:window-width="1261"
     inkscape:window-height="1416"
     inkscape:window-x="0"
     inkscape:window-y="0"
     inkscape:window-maximized="1"
     inkscape:current-layer="svg10" />
  <defs
     id="defs1" />
  <g
     transform="translate(-32.71497,-35.327972)"
     id="g10">
    <g
       id="g9">
      <g
         transform="matrix(1.5,0,0,1.5,-127.22,-102.07)"
         id="g1">
        <path
           d="m 239.75904,191.18976 c 21.68064,0 39.29184,18.09306 39.29184,40.36691 0,22.27384 -17.6112,40.36691 -39.29184,40.36691 -21.68065,0 -39.29185,-18.09307 -39.29185,-40.36691 0,-22.27385 17.6112,-40.36691 39.29185,-40.36691 z"
           fill="#b1ddeb"
           id="path1" />
      </g>
      <g
         transform="matrix(1.5,0,0,1.5,-127.22,-102.07)"
         id="g7">
        <g
           transform="translate(0,-72.4)"
           id="g2">
          <path
             d="m 151.80723,345.78313 c -0.73003,-4.83637 -1.46006,-9.67274 -0.22344,-13.48546 1.23663,-3.81272 4.4399,-6.60179 10.4644,-5.49044 6.02451,1.11135 14.87024,6.12311 13.23124,11.95747 -1.639,5.83435 -13.76273,12.49129 -7.84224,9.85124 5.9205,-2.64005 29.88522,-14.57709 43.69778,-29.11594 13.81255,-14.53885 17.47293,-31.6795 12.5,-49.5 -4.97294,-17.8205 -18.5792,-36.32083 -33.5,-42 -14.92081,-5.67917 -31.15615,1.46283 -44.5,12 -13.34385,10.53717 -23.7962,24.46951 -22.13497,42.6157 1.66123,18.14618 15.43604,40.5062 29.21084,62.86623"
             transform="rotate(-14.7156)"
             fill="#46a2c2"
             stroke="#efefef"
             stroke-width="2"
             stroke-linecap="round"
             id="path2" />
        </g>
        <g
           transform="rotate(72,290.36634,270.16387)"
           id="g3">
          <path
             d="m 151.80723,345.78313 c -0.73003,-4.83637 -1.46006,-9.67274 -0.22344,-13.48546 1.23663,-3.81272 4.4399,-6.60179 10.4644,-5.49044 6.02451,1.11135 14.87024,6.12311 13.23124,11.95747 -1.639,5.83435 -13.76273,12.49129 -7.84224,9.85124 5.9205,-2.64005 29.88522,-14.57709 43.69778,-29.11594 13.81255,-14.53885 17.47293,-31.6795 12.5,-49.5 -4.97294,-17.8205 -18.5792,-36.32083 -33.5,-42 -14.92081,-5.67917 -31.15615,1.46283 -44.5,12 -13.34385,10.53717 -23.7962,24.46951 -22.13497,42.6157 1.66123,18.14618 15.43604,40.5062 29.21084,62.86623"
             transform="rotate(-14.7156)"
             fill="#46a2c2"
             stroke="#efefef"
             stroke-width="2"
             stroke-linecap="round"
             id="path3" />
        </g>
        <g
           transform="rotate(144,252.3034,270.16387)"
           id="g4">
          <path
             d="m 151.80723,345.78313 c -0.73003,-4.83637 -1.46006,-9.67274 -0.22344,-13.48546 1.23663,-3.81272 4.4399,-6.60179 10.4644,-5.49044 6.02451,1.11135 14.87024,6.12311 13.23124,11.95747 -1.639,5.83435 -13.76273,12.49129 -7.84224,9.85124 5.9205,-2.64005 29.88522,-14.57709 43.69778,-29.11594 13.81255,-14.53885 17.47293,-31.6795 12.5,-49.5 -4.97294,-17.8205 -18.5792,-36.32083 -33.5,-42 -14.92081,-5.67917 -31.15615,1.46283 -44.5,12 -13.34385,10.53717 -23.7962,24.46951 -22.13497,42.6157 1.66123,18.14618 15.43604,40.5062 29.21084,62.86623"
             transform="rotate(-14.7156)"
             fill="#46a2c2"
             stroke="#efefef"
             stroke-width="2"
             stroke-linecap="round"
             id="path4" />
        </g>
        <g
           transform="rotate(-144,228.77922,270.16387)"
           id="g5">
          <path
             d="m 151.80723,345.78313 c -0.73003,-4.83637 -1.46006,-9.67274 -0.22344,-13.48546 1.23663,-3.81272 4.4399,-6.60179 10.4644,-5.49044 6.02451,1.11135 14.87024,6.12311 13.23124,11.95747 -1.639,5.83435 -13.76273,12.49129 -7.84224,9.85124 5.9205,-2.64005 29.88522,-14.57709 43.69778,-29.11594 13.81255,-14.53885 17.47293,-31.6795 12.5,-49.5 -4.97294,-17.8205 -18.5792,-36.32083 -33.5,-42 -14.92081,-5.67917 -31.15615,1.46283 -44.5,12 -13.34385,10.53717 -23.7962,24.46951 -22.13497,42.6157 1.66123,18.14618 15.43604,40.5062 29.21084,62.86623"
             transform="rotate(-14.7156)"
             fill="#46a2c2"
             stroke="#efefef"
             stroke-width="2"
             stroke-linecap="round"
             id="path5" />
        </g>
        <g
           transform="rotate(-72,190.71628,270.16387)"
           id="g6">
          <path
             d="m 151.80723,345.78313 c -0.73003,-4.83637 -1.46006,-9.67274 -0.22344,-13.48546 1.23663,-3.81272 4.4399,-6.60179 10.4644,-5.49044 6.02451,1.11135 14.87024,6.12311 13.23124,11.95747 -1.639,5.83435 -13.76273,12.49129 -7.84224,9.85124 5.9205,-2.64005 29.88522,-14.57709 43.69778,-29.11594 13.81255,-14.53885 17.47293,-31.6795 12.5,-49.5 -4.97294,-17.8205 -18.5792,-36.32083 -33.5,-42 -14.92081,-5.67917 -31.15615,1.46283 -44.5,12 -13.34385,10.53717 -23.7962,24.46951 -22.13497,42.6157 1.66123,18.14618 15.43604,40.5062 29.21084,62.86623"
             transform="rotate(-14.7156)"
             fill="#46a2c2"
             stroke="#efefef"
             stroke-width="2"
             stroke-linecap="round"
             id="path6" />
        </g>
      </g>
      <g
         transform="matrix(1.5,0,0,1.5,-127.22,-102.07)"
         id="g8">
        <path
           d="m 239.75904,218.37349 c 7.97761,0 14.45783,6.48022 14.45783,14.45783 0,7.97762 -6.48022,14.45784 -14.45783,14.45784 -7.97761,0 -14.45784,-6.48022 -14.45784,-14.45784 0,-7.97761 6.48023,-14.45783 14.45784,-14.45783 z"
           fill="#000000"
           stroke="#c3d44d"
           stroke-width="12"
           id="path7" />
      </g>
    </g>
  </g>
</svg>
